#!OML:ASF E:/inclinewalkrobotboard/Project1/Captureday1/Session1/subject1.ASF
:FULLY-SPECIFIED
:DEGREES
188
root 0 0 0 -2.7667186201524876 -0.0436392139440418 1.0604951843343229
lowerback 10.367160337844016 -1.1241642958651443 -2.863489193205388
upperback 0.5718977345717922 -1.7169992785449515 1.6700619633935894
thorax -5.120729238571608 -0.7703150440995039 3.593770698667311
lowerneck -16.898304186213004 -2.6206231002049805 -2.239421347392331
upperneck 19.593895737351936 -3.1763582044652523 0.4676003756142819
head 8.954178867798788 -1.5963024111845918 0.11850388490052888
rclavicle -4.497146138986548E-16 -3.1282590389231795E-16
rhumerus -28.91684537369904 -17.85985666095302 -77.99867573685495
rradius 26.840671955944067
rwrist 4.435046164910707
rhand -17.70960487484859 22.355816250461203
rfingers 7.125020000000022
rthumb 8.543198162138474 -7.4593206471271
lclavicle -7.542885282943645E-16 -1.9204672271466545E-16
lhumerus -28.842845868774067 -3.149913201577057 82.19103182056017
lradius 35.45365144626219
lwrist 5.971284331677783
lhand -24.673796745632963 24.438937770715068
lfingers 7.123095366608639
lthumb 1.7987370463974948 53.76657659806576
rfemur -7.694420570324279 7.695845568394786 28.075286959705448
rtibia 26.96155143814449
rfoot -13.756698040677206 -7.285192887914989
rtoes 0.2567229259863195
lfemur 0.5714197302748865 -1.8550315530358361 -23.594015668925657
ltibia 31.44581370428915
lfoot -9.501826097020773 -4.078966970728908
ltoes -5.924594011654563
189
root 0 0 0 -2.738888921227499 0.054761853691045914 0.7576958265359174
lowerback 10.381477365128662 -1.0301237105056456 -2.541021294384188
upperback 0.5288196125772382 -1.5525914418047932 1.712716945518054
thorax -5.175049697755016 -0.6940502031931428 3.433560592945799
lowerneck -17.10326839875904 -2.6358144397672985 -2.1358858408424304
upperneck 19.71021222555554 -3.1932958634605324 0.34983838706790493
head 9.025701926739668 -1.6020154824036779 0.056473396128362996
rclavicle -4.583567492145973E-16 -3.067515384236021E-16
rhumerus -28.806481805637677 -17.76397260261053 -77.97637338852849
rradius 26.937576867231858
rwrist 4.45608909109683
rhand -17.72808938504971 22.279053889834408
rfingers 7.1250200000000214
rthumb 8.526441607916059 -7.5349744275433395
lclavicle -7.547448568080489E-16 -1.9010819273149032E-16
lhumerus -28.89386016020738 -3.086914381620211 82.19406915858211
lradius 35.34559628123968
lwrist 5.9653896773226815
lhand -24.712065814824207 24.421500364985267
lfingers 7.12312819470722
lthumb 1.763105081769968 53.75515468832078
rfemur -7.097589045286266 7.102646591956569 28.67980540784355
rtibia 29.82493277852566
rfoot -12.51811133736988 -6.599217603045027
rtoes 1.852739526953675
lfemur -3.7772680311950637 -1.1353973954006058 -21.178115036789727
ltibia 37.76341383801668
lfoot -5.824142166749696 -5.723868709443863
ltoes -6.142251736449464
190
root 0 0 0 -2.6894929104327954 0.09741082337472307 0.195718186237281
lowerback 10.405014771156742 -0.8412400997317476 -1.9355423367180045
upperback 0.4702280656456024 -1.2287576311059805 1.7726067822099814
thorax -5.2500655239213 -0.5439402896437646 3.110402233964581
lowerneck -17.37662595136188 -2.6648638112474723 -1.9830244159296093
upperneck 19.86323866246844 -3.229149751746557 0.18823569389954198
head 9.122129082162576 -1.6150768098537878 -0.032750693586466983
rclavicle -4.64625593199849E-16 -3.057860788589707E-16
rhumerus -28.756226652320766 -17.72164472915992 -77.96798781096861
rradius 26.9787965124202
rwrist 4.464938495061729
rhand -17.736378436771734 22.245260233378218
rfingers 7.125020000000021
rthumb 8.518894668495392 -7.568291864238223
lclavicle -7.510487422998345E-16 -1.9241036195502258E-16
lhumerus -28.95943025104657 -3.010522304618906 82.19923366234961
lradius 35.20926048952831
lwrist 5.9561674528193045
lhand -24.758969143428736 24.398165450273833
lfingers 7.1231641878953225
lthumb 1.7194182587249838 53.74033281306717
rfemur -6.020738506307657 6.836896624641902 29.4727499573707
rtibia 30.997174523310395
rfoot -12.07919541380544 -6.078491192585086
rtoes 2.9051045123165977
lfemur -10.457192560221536 -0.15076218744316172 -17.554744452120374
ltibia 46.43016302079512
lfoot -0.8597823541009806 -7.637298462529056
ltoes -6.318241059864798
191
root 0 0 0 -2.5449511543947776 -0.29106432694326756 -1.4700080688401536
lowerback 10.459478382050365 -0.2279174478842807 -0.12161571645595126
upperback 0.3762505703488346 -0.20020001297537926 1.8761358705800113
thorax -5.374101913161384 -0.06798874157899037 2.0590515820379145
lowerneck -17.785851380500226 -2.7607513961089594 -1.6808116905028774
upperneck 20.082601542428012 -3.3667325651995306 -0.06680407078325956
head 9.26833222370948 -1.6660683587740968 -0.19674704040119506
rclavicle -4.614569475175588E-16 -3.190939425170482E-16
rhumerus -28.857375341363376 -17.809943759483005 -77.99627847613944
rradius 26.8867319982738
rwrist 4.442970961025241
rhand -17.718114431423277 22.317789175229198
rfingers 7.1250200000000214
rthumb 8.53451092518123 -7.496270221374729
lclavicle -7.323036855504048E-16 -2.0616754996235517E-16
lhumerus -29.18467735758877 -2.7690730719788306 82.21712719010254
lradius 34.73795104312679
lwrist 5.910433175925949
lhand -24.900961987227554 24.31154369803215
lfingers 7.123264579359407
lthumb 1.583844825247608 53.69719432064804
rfemur -3.703327602890319 7.224698755477776 30.86199769725003
rtibia 28.699270111620127
rfoot -13.279190864404331 -5.817393863147088
rtoes 3.02748838754804
lfemur -19.476230969360365 0.8436214598829763 -12.840475943908697
ltibia 55.67854039763884
lfoot 4.560835229787163 -9.0113794290663
ltoes -6.132223358846127
192
root 0 0 0 -2.4110058606348024 -1.1816055762954125 -2.989225795843317
lowerback 10.49016753887281 0.4018566504937178 1.552723148626253
upperback 0.3601268002248168 0.8279889628624346 1.8962605738914458
thorax -5.400416935453313 0.40574284293085816 1.00177523421211
lowerneck -17.808730967989728 -2.8709158739909397 -1.539997748596841
upperneck 20.039148102178633 -3.5457746899794276 -0.07278817393485326
head 9.267880319405727 -1.7349232113661763 -0.24835949558233095
rclavicle -4.718006855460574E-16 -3.242409506134529E-16
rhumerus -28.755258408259206 -17.696819764995787 -77.98777921537925
rradius 26.98919586736642
rwrist 4.460238782795068
rhand -17.73096184339489 22.24175254046123
rfingers 7.125020000000021
rthumb 8.52092826334231 -7.570683674068253
lclavicle -7.276610424088772E-16 -2.1246368816395595E-16
lhumerus -29.267296961576402 -2.6701326288286964 82.2218869157366
lradius 34.55100789424852
lwrist 5.8971392958662125
lhand -24.95696210601846 24.28240348049353
lfingers 7.123336296933241
lthumb 1.5314647186150943 53.68296114680138
rfemur -2.8690626364621146 7.520258025539796 31.280959505629774
rtibia 27.189316099711974
rfoot -14.041193891652696 -5.859792664938143
rtoes 2.735187558729349
lfemur -21.149977072249918 0.7301308474003796 -12.095958914017015
ltibia 55.20191961310785
lfoot 4.275663515980966 -8.063319325582814
ltoes -5.791839578149407
193
root 0 0 0 -2.274620962954689 -2.607087842083768 -4.529478539874408
lowerback 10.502314574600769 1.1325528714995194 3.2666790937595103
upperback 0.3872503647778651 1.9887138313883141 1.8484274728429386
thorax -5.368434144037967 0.9375371567662412 -0.16837367166798942
lowerneck -17.604546679900157 -3.0239179936952554 -1.4901878907659896
upperneck 19.79130545477807 -3.8054367317744506 0.1181241585850703
head 9.163459621544256 -1.8406102699327698 -0.2184054915805831
rclavicle -4.910933508646661E-16 -3.1633261310966383E-16
rhumerus -28.57185605294607 -17.514382194319523 -77.95803087520939
rradius 27.166891389617398
rwrist 4.494523983546255
rhand -17.75951421257371 22.107763763459584
rfingers 7.125020000000019
rthumb 8.493987329434635 -7.701982536820534
lclavicle -7.312803865732739E-16 -2.1117488227200366E-16
lhumerus -29.415689980491834 -2.500606529630531 82.23040976870674
lradius 34.231340657988746
lwrist 5.867924011968995
lhand -25.05111004209695 24.2267208276527
lfingers 7.123416874518216
lthumb 1.4434457682740938 53.65542007563196
rfemur -2.563077890292483 7.614448122768973 31.425450001918403
rtibia 26.74470284612368
rfoot -14.282076287787099 -5.862871170888903
rtoes 2.659645428878422
lfemur -21.435362680814297 0.31572827516476876 -12.191935336680636
ltibia 52.14679831523712
lfoot 2.5859179906327725 -6.394583143695904
ltoes -5.266749797062958
194
root 0 0 0 -2.1769379047254036 -4.058354611067319 -5.6766176278369445
lowerback 10.495564859161153 1.7490672234446443 4.54678582564275
upperback 0.4365989559237571 2.9464499043305685 1.7588988340527423
thorax -5.301840215308625 1.374053281594044 -1.1146847894200407
lowerneck -17.290103817718936 -3.170643608682605 -1.5221335992140608
upperneck 19.461278888153558 -4.060618609013522 0.40885199777644043
head 9.009882207050893 -1.9480140607170533 -0.13367374961942602
rclavicle -5.064992180229138E-16 -3.012330931017353E-16
rhumerus -28.479283453195208 -17.428112976293008 -77.9427189291156
rradius 27.250243155713015
rwrist 4.511010389430902
rhand -17.775515692654825 22.043727737002808
rfingers 7.125020000000018
rthumb 8.47981084625707 -7.764694353848707
lclavicle -7.202344627017611E-16 -2.0266567250571736E-16
lhumerus -29.657487235174386 -2.2373007545852914 82.2487412346538
lradius 33.724403119977794
lwrist 5.817286667759694
lhand -25.202477352482354 24.134851251454045
lfingers 7.123522891477776
lthumb 1.2993551488307613 53.614019691153175
rfemur -2.4209825719483504 7.6538149000645985 31.49143469332793
rtibia 26.532245515037484
rfoot -14.388099303512682 -5.8602255331411675
rtoes 2.598410062976452
lfemur -21.247803648349016 -0.2231405275367 -12.614573909111627
ltibia 48.05756370747468
lfoot 0.4685802596489257 -4.529106864760365
ltoes -4.612295939753283
195
root 0 0 0 -2.149930354311789 -4.633456325969936 -6.021489853759434
lowerback 10.487902051918276 1.955008274176322 4.9321553940748
upperback 0.4692368494698509 3.2608485471078295 1.7112946715991018
thorax -5.261542874328299 1.5169180395004185 -1.4254786827410266
lowerneck -17.108323657172775 -3.2210017983170998 -1.5650806992627047
upperneck 19.2921802523343 -4.152690059483794 0.5548113114597424
head 8.930260411435388 -1.986711916846297 -0.08196784612225061
rclavicle -5.098548809659798E-16 -2.9579342489067166E-16
rhumerus -28.550471836464244 -17.501597165215614 -77.95885719526042
rradius 27.169589266021088
rwrist 4.4936649066895304
rhand -17.76422915309915 22.101447137275542
rfingers 7.125020000000019
rthumb 8.49147205289655 -7.708223981946137
lclavicle -6.92618286020327E-16 -1.9576827499160232E-16
lhumerus -29.90321385785668 -1.9750698039311168 82.26891250711832
lradius 33.20923673402093
lwrist 5.762557709555821
lhand -25.356017972189424 24.039406147088016
lfingers 7.123637832143297
lthumb 1.1519212916390593 53.57574499434657
rfemur -2.4432307489829093 7.721545865896083 31.417705392169154
rtibia 26.254577318008746
rfoot -14.532076999939079 -5.9225438176631355
rtoes 2.3773151244898285
lfemur -20.373971971125357 -0.7510684468925368 -13.35734210751211
ltibia 43.93313793633088
lfoot -1.6112989535035034 -2.970347376388336
ltoes -4.060931824901882
